<?xml version="1.0" encoding="UTF-8"?><svg id="Layer_1" xmlns="http://www.w3.org/2000/svg" viewBox="0 0 122.05 122.05"><defs><style>.cls-1{fill:#fff;}</style></defs><path d="m61.03,0C27.32,0,0,27.32,0,61.03c0,30.46,22.32,55.71,51.49,60.28,3.11.49,6.29.74,9.54.74s6.43-.25,9.54-.74c29.17-4.58,51.49-29.82,51.49-60.28C122.05,27.32,94.73,0,61.03,0Z"/><path class="cls-1" d="m77.15,66.94l2.19-14.29h-13.71v-9.27c0-3.91,1.91-7.72,8.05-7.72h6.23v-12.16s-5.66-.97-11.06-.97c-11.29,0-18.67,6.84-18.67,19.23v10.89h-12.55v14.29h12.55v34.53c2.52.39,5.09.6,7.72.6s5.21-.21,7.72-.6v-34.53h11.51Z"/></svg>