<?xml version="1.0" encoding="UTF-8"?><svg id="Layer_1" xmlns="http://www.w3.org/2000/svg" viewBox="0 0 122.05 122.05"><defs><style>.cls-1{fill:#fff;}</style></defs><circle cx="61.03" cy="61.03" r="61.03"/><path class="cls-1" d="m79.97,37.94c-2.32,0-4.19,1.88-4.19,4.19s1.88,4.2,4.19,4.2,4.2-1.88,4.2-4.2-1.88-4.19-4.2-4.19Z"/><path class="cls-1" d="m61.32,43.32c-9.72,0-17.62,7.9-17.62,17.62s7.91,17.62,17.62,17.62,17.62-7.91,17.62-17.62-7.91-17.62-17.62-17.62Zm0,28.91c-6.22,0-11.29-5.06-11.29-11.29s5.06-11.29,11.29-11.29,11.29,5.06,11.29,11.29-5.06,11.29-11.29,11.29Z"/><path class="cls-1" d="m75.31,96.72h-28.57c-11.85,0-21.49-9.64-21.49-21.49v-28.57c0-11.85,9.64-21.49,21.49-21.49h28.57c11.85,0,21.49,9.64,21.49,21.49v28.57c0,11.85-9.64,21.49-21.49,21.49ZM46.74,31.9c-8.14,0-14.76,6.62-14.76,14.76v28.57c0,8.14,6.62,14.76,14.76,14.76h28.57c8.14,0,14.76-6.62,14.76-14.76v-28.57c0-8.14-6.62-14.76-14.76-14.76h-28.57Z"/></svg>