<?xml version="1.0" encoding="UTF-8"?><svg id="Layer_1" xmlns="http://www.w3.org/2000/svg" viewBox="0 0 122.05 122.05"><defs><style>.cls-1{fill:#fff;}</style></defs><circle cx="61.03" cy="61.03" r="61.03"/><path class="cls-1" d="m35.43,49.66h11.82v37.97h-11.82v-37.97Zm5.91-18.87c3.78,0,6.84,3.07,6.84,6.84s-3.06,6.85-6.84,6.85-6.85-3.07-6.85-6.85,3.06-6.84,6.85-6.84"/><path class="cls-1" d="m54.66,49.66h11.32v5.19h.15c1.58-2.99,5.43-6.13,11.18-6.13,11.95,0,14.15,7.86,14.15,18.08v20.82h-11.79v-18.46c0-4.41-.09-10.07-6.13-10.07s-7.08,4.8-7.08,9.75v18.78h-11.8v-37.97Z"/></svg>